<svg version="1.1" class="highcharts-root" style="font-family:&quot;Lucida Grande&quot;, &quot;Lucida Sans Unicode&quot;, Arial, Helvetica, sans-serif;font-size:12px;" xmlns="http://www.w3.org/2000/svg" width="370" height="167" viewBox="0 0 370 167"><desc>Created with Highcharts 5.0.8</desc><defs><clipPath id="highcharts-3qacl7e-9"><rect x="0" y="0" width="370" height="137" fill="none"></rect></clipPath></defs><rect fill="#ffffff" class="highcharts-background" x="0" y="0" width="370" height="167" rx="0" ry="0"></rect><rect fill="none" class="highcharts-plot-background" x="0" y="0" width="370" height="137"></rect><g class="highcharts-plot-bands-0"><path fill="#F9F9F9" class="highcharts-plot-band " d="M 24.5 0 L 24.5 137 85.5 137 85.5 0 z" visibility="visible"></path><path fill="#F9F9F9" class="highcharts-plot-band " d="M 149.5 0 L 149.5 137 211.5 137 211.5 0 z" visibility="visible"></path><path fill="#F9F9F9" class="highcharts-plot-band " d="M 274.5 0 L 274.5 137 338.5 137 338.5 0 z" visibility="visible"></path></g><g class="highcharts-grid highcharts-xaxis-grid "><path fill="none" class="highcharts-grid-line" d="M 24.5 0 L 24.5 137" opacity="1"></path><path fill="none" class="highcharts-grid-line" d="M 85.5 0 L 85.5 137" opacity="1"></path><path fill="none" class="highcharts-grid-line" d="M 149.5 0 L 149.5 137" opacity="1"></path><path fill="none" class="highcharts-grid-line" d="M 211.5 0 L 211.5 137" opacity="1"></path><path fill="none" class="highcharts-grid-line" d="M 274.5 0 L 274.5 137" opacity="1"></path><path fill="none" class="highcharts-grid-line" d="M 338.5 0 L 338.5 137" opacity="1"></path></g><rect fill="none" class="highcharts-plot-border" x="0" y="0" width="370" height="137"></rect><g class="highcharts-axis highcharts-xaxis "><path fill="none" class="highcharts-axis-line" d="M 0 137 L 370 137"></path></g><g class="highcharts-series-group"><g class="highcharts-series highcharts-series-0 highcharts-area-series highcharts-color-undefined " transform="translate(0,0) scale(1 1)" clip-path="url(#highcharts-3qacl7e-9)"><path fill="rgba(217,35,35,0.1)" d="M 0 109.4493 L 2.0555555555556 110.49735 L 4.1111111111111 110.6412 L 6.1666666666667 109.79865 L 8.2222222222222 109.36025000000001 L 10.277777777778 109.81235 L 12.333333333333 109.63425 L 14.388888888889 110.5179 L 16.444444444444 111.15495 L 18.5 112.4085 L 20.555555555556 112.05915 L 22.611111111111 111.1755 L 24.666666666667 109.99045 L 26.722222222222 110.63435 L 28.777777777778 111.92215 L 30.833333333333 111.6002 L 32.888888888889 111.96325 L 34.944444444444 109.52465 L 37 110.38775 L 39.055555555556 109.55205 L 41.111111111111 110.9426 L 43.166666666667 110.59325 L 45.222222222222 110.3672 L 47.277777777778 111.60705 L 49.333333333333 111.18235 L 51.388888888889 110.4357 L 53.444444444444 110.04525 L 55.5 109.6 L 57.555555555556 109.6 L 59.611111111111 111.73035 L 61.666666666667 110.56585 L 63.722222222222 109.79865 L 65.777777777778 110.25075 L 67.833333333333 109.326 L 69.888888888889 109.46985000000001 L 71.944444444444 108.69579999999999 L 74 109.3945 L 76.055555555556 110.55215 L 78.111111111111 109.5726 L 80.166666666667 109.92195 L 82.222222222222 108.98349999999999 L 84.277777777778 108.64099999999999 L 86.333333333333 109.1753 L 88.388888888889 109.75755 L 90.444444444444 110.73025 L 92.5 109.34655000000001 L 94.555555555556 107.57925 L 96.611111111111 109.20955000000001 L 98.666666666667 108.3944 L 100.72222222222 108.86705 L 102.77777777778 109.14789999999999 L 104.83333333333 110.1069 L 106.88888888889 109.09309999999999 L 108.94444444444 109.4219 L 111 109.03145 L 113.05555555556 108.27795 L 115.11111111111 108.38755 L 117.16666666667 108.86705 L 119.22222222222 109.09995 L 121.27777777778 108.2985 L 123.33333333333 107.57925 L 125.38888888889 108.04505 L 127.44444444444 106.48325 L 129.5 107.9286 L 131.55555555556 108.49029999999999 L 133.61111111111 110.10005 L 135.66666666667 108.1615 L 137.72222222222 108.23 L 139.77777777778 107.6957 L 141.83333333333 106.9285 L 143.88888888889 107.682 L 145.94444444444 109.5178 L 148 110.81245 L 150.05555555556 107.67515 L 152.11111111111 106.6408 L 154.16666666667 106.4216 L 156.22222222222 106.40105 L 158.27777777778 106.9833 L 160.33333333333 106.81205 L 162.38888888889 106.49695 L 164.44444444444 105.4489 L 166.5 107.18195 L 168.55555555556 106.07225 L 170.61111111111 104.60634999999999 L 172.66666666667 99.85929999999999 L 174.72222222222 104.98310000000001 L 176.77777777778 104.00354999999999 L 178.83333333333 103.44185 L 180.88888888889 105.3393 L 182.94444444444 106.1065 L 185 104.88034999999999 L 187.05555555556 101.20875000000001 L 189.11111111111 101.0923 L 191.16666666667 102.0239 L 193.22222222222 102.71575 L 195.27777777778 101.4896 L 197.33333333333 101.18135000000001 L 199.38888888889 98.9962 L 201.44444444444 97.7358 L 203.5 96.0644 L 205.55555555556 94.6122 L 207.61111111111 99.79079999999999 L 209.66666666667 100.07165 L 211.72222222222 97.60565 L 213.77777777778 98.4619 L 215.83333333333 95.5027 L 217.88888888889 90.68715 L 219.94444444444 90.3652 L 222 92.30375000000001 L 224.05555555556 91.65299999999999 L 226.11111111111 91.89959999999999 L 228.16666666667 91.24885 L 230.22222222222 89.6528 L 232.27777777778 83.6111 L 234.33333333333 85.35785 L 236.38888888889 91.35845 L 238.44444444444 90.42 L 240.5 91.42009999999999 L 242.55555555556 90.80359999999999 L 244.61111111111 86.71414999999999 L 246.66666666667 81.23415 L 248.72222222222 83.68645000000001 L 250.77777777778 89.7898 L 252.83333333333 86.63194999999999 L 254.88888888889 82.53565 L 256.94444444444 70.00015 L 259 19.015599999999992 L 261.05555555556 28.372699999999995 L 263.11111111111 86.5155 L 265.16666666667 100.33195 L 267.22222222222 103.48295 L 269.27777777778 103.52405 L 271.33333333333 103.81174999999999 L 273.38888888889 99.68119999999999 L 275.44444444444 108.14095 L 277.5 108.09985 L 279.55555555556 108.23685 L 281.61111111111 108.53825 L 283.66666666667 109.66165 L 285.72222222222 110.23705 L 287.77777777778 109.26435000000001 L 289.83333333333 107.90805 L 291.88888888889 107.5724 L 293.94444444444 107.55185 L 296 107.37375 L 298.05555555556 106.62025 L 300.11111111111 105.33245 L 302.16666666667 105.25025 L 304.22222222222 106.03115 L 306.27777777778 107.86695 L 308.33333333333 106.9011 L 310.38888888889 106.1476 L 312.44444444444 105.5174 L 314.5 106.15445 L 316.55555555556 107.3806 L 318.61111111111 107.5313 L 320.66666666667 108.18205 L 322.72222222222 107.4491 L 324.77777777778 106.5723 L 326.83333333333 105.42835 L 328.88888888889 106.3805 L 330.94444444444 106.22295 L 333 105.9284 L 335.05555555556 107.1203 L 337.11111111111 105.38725 L 339.16666666667 105.6955 L 341.22222222222 106.08595 L 343.27777777778 105.81195 L 345.33333333333 82.05615 L 347.38888888889 96.88640000000001 L 349.44444444444 102.4623 L 351.5 100.52375 L 353.55555555556 100.9416 L 355.61111111111 100.8457 L 357.66666666667 99.14005 L 359.72222222222 99.77709999999999 L 361.77777777778 101.71565 L 363.83333333333 101.3115 L 365.88888888889 94.64645 L 367.94444444444 99.22225 L 370 103.3802 L 370 137 L 367.94444444444 137 L 365.88888888889 137 L 363.83333333333 137 L 361.77777777778 137 L 359.72222222222 137 L 357.66666666667 137 L 355.61111111111 137 L 353.55555555556 137 L 351.5 137 L 349.44444444444 137 L 347.38888888889 137 L 345.33333333333 137 L 343.27777777778 137 L 341.22222222222 137 L 339.16666666667 137 L 337.11111111111 137 L 335.05555555556 137 L 333 137 L 330.94444444444 137 L 328.88888888889 137 L 326.83333333333 137 L 324.77777777778 137 L 322.72222222222 137 L 320.66666666667 137 L 318.61111111111 137 L 316.55555555556 137 L 314.5 137 L 312.44444444444 137 L 310.38888888889 137 L 308.33333333333 137 L 306.27777777778 137 L 304.22222222222 137 L 302.16666666667 137 L 300.11111111111 137 L 298.05555555556 137 L 296 137 L 293.94444444444 137 L 291.88888888889 137 L 289.83333333333 137 L 287.77777777778 137 L 285.72222222222 137 L 283.66666666667 137 L 281.61111111111 137 L 279.55555555556 137 L 277.5 137 L 275.44444444444 137 L 273.38888888889 137 L 271.33333333333 137 L 269.27777777778 137 L 267.22222222222 137 L 265.16666666667 137 L 263.11111111111 137 L 261.05555555556 137 L 259 137 L 256.94444444444 137 L 254.88888888889 137 L 252.83333333333 137 L 250.77777777778 137 L 248.72222222222 137 L 246.66666666667 137 L 244.61111111111 137 L 242.55555555556 137 L 240.5 137 L 238.44444444444 137 L 236.38888888889 137 L 234.33333333333 137 L 232.27777777778 137 L 230.22222222222 137 L 228.16666666667 137 L 226.11111111111 137 L 224.05555555556 137 L 222 137 L 219.94444444444 137 L 217.88888888889 137 L 215.83333333333 137 L 213.77777777778 137 L 211.72222222222 137 L 209.66666666667 137 L 207.61111111111 137 L 205.55555555556 137 L 203.5 137 L 201.44444444444 137 L 199.38888888889 137 L 197.33333333333 137 L 195.27777777778 137 L 193.22222222222 137 L 191.16666666667 137 L 189.11111111111 137 L 187.05555555556 137 L 185 137 L 182.94444444444 137 L 180.88888888889 137 L 178.83333333333 137 L 176.77777777778 137 L 174.72222222222 137 L 172.66666666667 137 L 170.61111111111 137 L 168.55555555556 137 L 166.5 137 L 164.44444444444 137 L 162.38888888889 137 L 160.33333333333 137 L 158.27777777778 137 L 156.22222222222 137 L 154.16666666667 137 L 152.11111111111 137 L 150.05555555556 137 L 148 137 L 145.94444444444 137 L 143.88888888889 137 L 141.83333333333 137 L 139.77777777778 137 L 137.72222222222 137 L 135.66666666667 137 L 133.61111111111 137 L 131.55555555556 137 L 129.5 137 L 127.44444444444 137 L 125.38888888889 137 L 123.33333333333 137 L 121.27777777778 137 L 119.22222222222 137 L 117.16666666667 137 L 115.11111111111 137 L 113.05555555556 137 L 111 137 L 108.94444444444 137 L 106.88888888889 137 L 104.83333333333 137 L 102.77777777778 137 L 100.72222222222 137 L 98.666666666667 137 L 96.611111111111 137 L 94.555555555556 137 L 92.5 137 L 90.444444444444 137 L 88.388888888889 137 L 86.333333333333 137 L 84.277777777778 137 L 82.222222222222 137 L 80.166666666667 137 L 78.111111111111 137 L 76.055555555556 137 L 74 137 L 71.944444444444 137 L 69.888888888889 137 L 67.833333333333 137 L 65.777777777778 137 L 63.722222222222 137 L 61.666666666667 137 L 59.611111111111 137 L 57.555555555556 137 L 55.5 137 L 53.444444444444 137 L 51.388888888889 137 L 49.333333333333 137 L 47.277777777778 137 L 45.222222222222 137 L 43.166666666667 137 L 41.111111111111 137 L 39.055555555556 137 L 37 137 L 34.944444444444 137 L 32.888888888889 137 L 30.833333333333 137 L 28.777777777778 137 L 26.722222222222 137 L 24.666666666667 137 L 22.611111111111 137 L 20.555555555556 137 L 18.5 137 L 16.444444444444 137 L 14.388888888889 137 L 12.333333333333 137 L 10.277777777778 137 L 8.2222222222222 137 L 6.1666666666667 137 L 4.1111111111111 137 L 2.0555555555556 137 L 0 137" class="highcharts-area"></path><path fill="none" d="M 0 109.4493 L 2.0555555555556 110.49735 L 4.1111111111111 110.6412 L 6.1666666666667 109.79865 L 8.2222222222222 109.36025000000001 L 10.277777777778 109.81235 L 12.333333333333 109.63425 L 14.388888888889 110.5179 L 16.444444444444 111.15495 L 18.5 112.4085 L 20.555555555556 112.05915 L 22.611111111111 111.1755 L 24.666666666667 109.99045 L 26.722222222222 110.63435 L 28.777777777778 111.92215 L 30.833333333333 111.6002 L 32.888888888889 111.96325 L 34.944444444444 109.52465 L 37 110.38775 L 39.055555555556 109.55205 L 41.111111111111 110.9426 L 43.166666666667 110.59325 L 45.222222222222 110.3672 L 47.277777777778 111.60705 L 49.333333333333 111.18235 L 51.388888888889 110.4357 L 53.444444444444 110.04525 L 55.5 109.6 L 57.555555555556 109.6 L 59.611111111111 111.73035 L 61.666666666667 110.56585 L 63.722222222222 109.79865 L 65.777777777778 110.25075 L 67.833333333333 109.326 L 69.888888888889 109.46985000000001 L 71.944444444444 108.69579999999999 L 74 109.3945 L 76.055555555556 110.55215 L 78.111111111111 109.5726 L 80.166666666667 109.92195 L 82.222222222222 108.98349999999999 L 84.277777777778 108.64099999999999 L 86.333333333333 109.1753 L 88.388888888889 109.75755 L 90.444444444444 110.73025 L 92.5 109.34655000000001 L 94.555555555556 107.57925 L 96.611111111111 109.20955000000001 L 98.666666666667 108.3944 L 100.72222222222 108.86705 L 102.77777777778 109.14789999999999 L 104.83333333333 110.1069 L 106.88888888889 109.09309999999999 L 108.94444444444 109.4219 L 111 109.03145 L 113.05555555556 108.27795 L 115.11111111111 108.38755 L 117.16666666667 108.86705 L 119.22222222222 109.09995 L 121.27777777778 108.2985 L 123.33333333333 107.57925 L 125.38888888889 108.04505 L 127.44444444444 106.48325 L 129.5 107.9286 L 131.55555555556 108.49029999999999 L 133.61111111111 110.10005 L 135.66666666667 108.1615 L 137.72222222222 108.23 L 139.77777777778 107.6957 L 141.83333333333 106.9285 L 143.88888888889 107.682 L 145.94444444444 109.5178 L 148 110.81245 L 150.05555555556 107.67515 L 152.11111111111 106.6408 L 154.16666666667 106.4216 L 156.22222222222 106.40105 L 158.27777777778 106.9833 L 160.33333333333 106.81205 L 162.38888888889 106.49695 L 164.44444444444 105.4489 L 166.5 107.18195 L 168.55555555556 106.07225 L 170.61111111111 104.60634999999999 L 172.66666666667 99.85929999999999 L 174.72222222222 104.98310000000001 L 176.77777777778 104.00354999999999 L 178.83333333333 103.44185 L 180.88888888889 105.3393 L 182.94444444444 106.1065 L 185 104.88034999999999 L 187.05555555556 101.20875000000001 L 189.11111111111 101.0923 L 191.16666666667 102.0239 L 193.22222222222 102.71575 L 195.27777777778 101.4896 L 197.33333333333 101.18135000000001 L 199.38888888889 98.9962 L 201.44444444444 97.7358 L 203.5 96.0644 L 205.55555555556 94.6122 L 207.61111111111 99.79079999999999 L 209.66666666667 100.07165 L 211.72222222222 97.60565 L 213.77777777778 98.4619 L 215.83333333333 95.5027 L 217.88888888889 90.68715 L 219.94444444444 90.3652 L 222 92.30375000000001 L 224.05555555556 91.65299999999999 L 226.11111111111 91.89959999999999 L 228.16666666667 91.24885 L 230.22222222222 89.6528 L 232.27777777778 83.6111 L 234.33333333333 85.35785 L 236.38888888889 91.35845 L 238.44444444444 90.42 L 240.5 91.42009999999999 L 242.55555555556 90.80359999999999 L 244.61111111111 86.71414999999999 L 246.66666666667 81.23415 L 248.72222222222 83.68645000000001 L 250.77777777778 89.7898 L 252.83333333333 86.63194999999999 L 254.88888888889 82.53565 L 256.94444444444 70.00015 L 259 19.015599999999992 L 261.05555555556 28.372699999999995 L 263.11111111111 86.5155 L 265.16666666667 100.33195 L 267.22222222222 103.48295 L 269.27777777778 103.52405 L 271.33333333333 103.81174999999999 L 273.38888888889 99.68119999999999 L 275.44444444444 108.14095 L 277.5 108.09985 L 279.55555555556 108.23685 L 281.61111111111 108.53825 L 283.66666666667 109.66165 L 285.72222222222 110.23705 L 287.77777777778 109.26435000000001 L 289.83333333333 107.90805 L 291.88888888889 107.5724 L 293.94444444444 107.55185 L 296 107.37375 L 298.05555555556 106.62025 L 300.11111111111 105.33245 L 302.16666666667 105.25025 L 304.22222222222 106.03115 L 306.27777777778 107.86695 L 308.33333333333 106.9011 L 310.38888888889 106.1476 L 312.44444444444 105.5174 L 314.5 106.15445 L 316.55555555556 107.3806 L 318.61111111111 107.5313 L 320.66666666667 108.18205 L 322.72222222222 107.4491 L 324.77777777778 106.5723 L 326.83333333333 105.42835 L 328.88888888889 106.3805 L 330.94444444444 106.22295 L 333 105.9284 L 335.05555555556 107.1203 L 337.11111111111 105.38725 L 339.16666666667 105.6955 L 341.22222222222 106.08595 L 343.27777777778 105.81195 L 345.33333333333 82.05615 L 347.38888888889 96.88640000000001 L 349.44444444444 102.4623 L 351.5 100.52375 L 353.55555555556 100.9416 L 355.61111111111 100.8457 L 357.66666666667 99.14005 L 359.72222222222 99.77709999999999 L 361.77777777778 101.71565 L 363.83333333333 101.3115 L 365.88888888889 94.64645 L 367.94444444444 99.22225 L 370 103.3802" class="highcharts-graph" stroke="#D92323" stroke-width="2" stroke-linejoin="round" stroke-linecap="round"></path><path fill="none" d="M -10 109.4493 L 0 109.4493 L 2.0555555555556 110.49735 L 4.1111111111111 110.6412 L 6.1666666666667 109.79865 L 8.2222222222222 109.36025000000001 L 10.277777777778 109.81235 L 12.333333333333 109.63425 L 14.388888888889 110.5179 L 16.444444444444 111.15495 L 18.5 112.4085 L 20.555555555556 112.05915 L 22.611111111111 111.1755 L 24.666666666667 109.99045 L 26.722222222222 110.63435 L 28.777777777778 111.92215 L 30.833333333333 111.6002 L 32.888888888889 111.96325 L 34.944444444444 109.52465 L 37 110.38775 L 39.055555555556 109.55205 L 41.111111111111 110.9426 L 43.166666666667 110.59325 L 45.222222222222 110.3672 L 47.277777777778 111.60705 L 49.333333333333 111.18235 L 51.388888888889 110.4357 L 53.444444444444 110.04525 L 55.5 109.6 L 57.555555555556 109.6 L 59.611111111111 111.73035 L 61.666666666667 110.56585 L 63.722222222222 109.79865 L 65.777777777778 110.25075 L 67.833333333333 109.326 L 69.888888888889 109.46985000000001 L 71.944444444444 108.69579999999999 L 74 109.3945 L 76.055555555556 110.55215 L 78.111111111111 109.5726 L 80.166666666667 109.92195 L 82.222222222222 108.98349999999999 L 84.277777777778 108.64099999999999 L 86.333333333333 109.1753 L 88.388888888889 109.75755 L 90.444444444444 110.73025 L 92.5 109.34655000000001 L 94.555555555556 107.57925 L 96.611111111111 109.20955000000001 L 98.666666666667 108.3944 L 100.72222222222 108.86705 L 102.77777777778 109.14789999999999 L 104.83333333333 110.1069 L 106.88888888889 109.09309999999999 L 108.94444444444 109.4219 L 111 109.03145 L 113.05555555556 108.27795 L 115.11111111111 108.38755 L 117.16666666667 108.86705 L 119.22222222222 109.09995 L 121.27777777778 108.2985 L 123.33333333333 107.57925 L 125.38888888889 108.04505 L 127.44444444444 106.48325 L 129.5 107.9286 L 131.55555555556 108.49029999999999 L 133.61111111111 110.10005 L 135.66666666667 108.1615 L 137.72222222222 108.23 L 139.77777777778 107.6957 L 141.83333333333 106.9285 L 143.88888888889 107.682 L 145.94444444444 109.5178 L 148 110.81245 L 150.05555555556 107.67515 L 152.11111111111 106.6408 L 154.16666666667 106.4216 L 156.22222222222 106.40105 L 158.27777777778 106.9833 L 160.33333333333 106.81205 L 162.38888888889 106.49695 L 164.44444444444 105.4489 L 166.5 107.18195 L 168.55555555556 106.07225 L 170.61111111111 104.60634999999999 L 172.66666666667 99.85929999999999 L 174.72222222222 104.98310000000001 L 176.77777777778 104.00354999999999 L 178.83333333333 103.44185 L 180.88888888889 105.3393 L 182.94444444444 106.1065 L 185 104.88034999999999 L 187.05555555556 101.20875000000001 L 189.11111111111 101.0923 L 191.16666666667 102.0239 L 193.22222222222 102.71575 L 195.27777777778 101.4896 L 197.33333333333 101.18135000000001 L 199.38888888889 98.9962 L 201.44444444444 97.7358 L 203.5 96.0644 L 205.55555555556 94.6122 L 207.61111111111 99.79079999999999 L 209.66666666667 100.07165 L 211.72222222222 97.60565 L 213.77777777778 98.4619 L 215.83333333333 95.5027 L 217.88888888889 90.68715 L 219.94444444444 90.3652 L 222 92.30375000000001 L 224.05555555556 91.65299999999999 L 226.11111111111 91.89959999999999 L 228.16666666667 91.24885 L 230.22222222222 89.6528 L 232.27777777778 83.6111 L 234.33333333333 85.35785 L 236.38888888889 91.35845 L 238.44444444444 90.42 L 240.5 91.42009999999999 L 242.55555555556 90.80359999999999 L 244.61111111111 86.71414999999999 L 246.66666666667 81.23415 L 248.72222222222 83.68645000000001 L 250.77777777778 89.7898 L 252.83333333333 86.63194999999999 L 254.88888888889 82.53565 L 256.94444444444 70.00015 L 259 19.015599999999992 L 261.05555555556 28.372699999999995 L 263.11111111111 86.5155 L 265.16666666667 100.33195 L 267.22222222222 103.48295 L 269.27777777778 103.52405 L 271.33333333333 103.81174999999999 L 273.38888888889 99.68119999999999 L 275.44444444444 108.14095 L 277.5 108.09985 L 279.55555555556 108.23685 L 281.61111111111 108.53825 L 283.66666666667 109.66165 L 285.72222222222 110.23705 L 287.77777777778 109.26435000000001 L 289.83333333333 107.90805 L 291.88888888889 107.5724 L 293.94444444444 107.55185 L 296 107.37375 L 298.05555555556 106.62025 L 300.11111111111 105.33245 L 302.16666666667 105.25025 L 304.22222222222 106.03115 L 306.27777777778 107.86695 L 308.33333333333 106.9011 L 310.38888888889 106.1476 L 312.44444444444 105.5174 L 314.5 106.15445 L 316.55555555556 107.3806 L 318.61111111111 107.5313 L 320.66666666667 108.18205 L 322.72222222222 107.4491 L 324.77777777778 106.5723 L 326.83333333333 105.42835 L 328.88888888889 106.3805 L 330.94444444444 106.22295 L 333 105.9284 L 335.05555555556 107.1203 L 337.11111111111 105.38725 L 339.16666666667 105.6955 L 341.22222222222 106.08595 L 343.27777777778 105.81195 L 345.33333333333 82.05615 L 347.38888888889 96.88640000000001 L 349.44444444444 102.4623 L 351.5 100.52375 L 353.55555555556 100.9416 L 355.61111111111 100.8457 L 357.66666666667 99.14005 L 359.72222222222 99.77709999999999 L 361.77777777778 101.71565 L 363.83333333333 101.3115 L 365.88888888889 94.64645 L 367.94444444444 99.22225 L 370 103.3802 L 380 103.3802" stroke-linejoin="round" visibility="visible" stroke="rgba(192,192,192,0.0001)" stroke-width="22" class="highcharts-tracker"></path></g><g class="highcharts-markers highcharts-series-0 highcharts-area-series highcharts-color-undefined highcharts-tracker" transform="translate(0,0) scale(1 1)" clip-path="none"></g></g><g class="highcharts-axis-labels highcharts-xaxis-labels "><text x="55.5" style="color:#999;cursor:default;font-size:12px;font-family:Barlow, &quot;Open Sans&quot;, &quot;Lucida Grande&quot;, &quot;Helvetica Neue&quot;, Helvetica, Arial, sans-serif;fill:#999;" text-anchor="middle" transform="translate(0,0)" y="157" opacity="1"><tspan>Sep</tspan></text><text x="118.19444444444443" style="color:#999;cursor:default;font-size:12px;font-family:Barlow, &quot;Open Sans&quot;, &quot;Lucida Grande&quot;, &quot;Helvetica Neue&quot;, Helvetica, Arial, sans-serif;fill:#999;" text-anchor="middle" transform="translate(0,0)" y="157" opacity="1"><tspan>Oct</tspan></text><text x="180.88888888888889" style="color:#999;cursor:default;font-size:12px;font-family:Barlow, &quot;Open Sans&quot;, &quot;Lucida Grande&quot;, &quot;Helvetica Neue&quot;, Helvetica, Arial, sans-serif;fill:#999;" text-anchor="middle" transform="translate(0,0)" y="157" opacity="1"><tspan>Nov</tspan></text><text x="243.58333333333334" style="color:#999;cursor:default;font-size:12px;font-family:Barlow, &quot;Open Sans&quot;, &quot;Lucida Grande&quot;, &quot;Helvetica Neue&quot;, Helvetica, Arial, sans-serif;fill:#999;" text-anchor="middle" transform="translate(0,0)" y="157" opacity="1"><tspan>Dec</tspan></text><text x="307.30555555555554" style="color:#999;cursor:default;font-size:12px;font-family:Barlow, &quot;Open Sans&quot;, &quot;Lucida Grande&quot;, &quot;Helvetica Neue&quot;, Helvetica, Arial, sans-serif;fill:#999;" text-anchor="middle" transform="translate(0,0)" y="157" opacity="1"><tspan>Jan</tspan></text><text x="339.1666666666667" style="color: rgb(153, 153, 153); cursor: default; font-size: 12px; font-family: Barlow, &quot;Open Sans&quot;, &quot;Lucida Grande&quot;, &quot;Helvetica Neue&quot;, Helvetica, Arial, sans-serif; fill: rgb(153, 153, 153); display: none;" text-anchor="middle" transform="translate(0,0)" y="157" opacity="1"><tspan>Feb</tspan></text></g></svg>